<svg xmlns="http://www.w3.org/2000/svg" width="198" height="198" viewBox="0 0 198 198"><g id="Group_283" data-name="Group 283" transform="translate(-189.106 -2197)"><g id="Group_170" data-name="Group 170" transform="translate(39.348 -47.758)"><circle id="Ellipse_29" data-name="Ellipse 29" cx="99" cy="99" r="99" transform="translate(149.758 2244.758)" fill="#ccf"></circle><circle id="Ellipse_30" data-name="Ellipse 30" cx="71.5" cy="71.5" r="71.5" transform="translate(176.758 2271.758)" fill="#9999eb"></circle></g><g id="man" transform="translate(208.971 2214.766)"><path id="Path_23571" data-name="Path 23571" d="M155.659,33.807l-9.1,105.938a14.633,14.633,0,0,1-14.579,13.395H26.285a14.646,14.646,0,0,1-14.591-13.394L2.611,33.807a14.655,14.655,0,0,1,9.869-15.114l27.774-9.42S73.772,19.6,79.13,19.614C84.5,19.6,118.019,9.272,118.019,9.272l27.762,9.42a14.65,14.65,0,0,1,9.879,15.114Z" transform="translate(0 1.287)" stroke="#919599" stroke-width="2"></path><path id="Path_23572" data-name="Path 23572" d="M108.389,94.965H34.25V15.012q37.1,14.952,74.139,0Z" transform="translate(7.798 2.7)" fill="#b3c5dd" stroke="#919599" stroke-width="2"></path><path id="Path_23573" data-name="Path 23573" d="M47.907,49.936,71.689,89.8a1.381,1.381,0,0,0,2.367,0L97.839,49.936h16.542L89.2,153.687H56.18L27.988,49.936Zm54.881-37.444C99.311,20.542,95.374,31.905,91.187,34c-4.81,2.417-14.716-10.517-18.317-10.492C69.269,23.482,59.363,36.416,54.554,34c-4.187-2.093-8.124-13.457-11.6-21.507l3.3-2.667,3.464-2.8a39.269,39.269,0,0,1,6.454,2.8c5.62,2.916,11.339,9.084,16.7,9.1,5.37-.012,11.09-6.18,16.709-9.1a38.7,38.7,0,0,1,6.442-2.8l3.464,2.8Z" transform="translate(6.257 0.734)" fill="#d3ddef" stroke="#919599" stroke-width="2"></path><path id="Path_23574" data-name="Path 23574" d="M73.2,19.759a24.993,24.993,0,0,1,13.186-2.895,2.776,2.776,0,0,1,2.558,2.8V31.175a2.791,2.791,0,0,1-2.735,2.8c-3.845.044-10.824-.836-14.828-7.163a5.03,5.03,0,0,1-.773-2.683A4.931,4.931,0,0,1,73.2,19.759Zm-10.173,0a25,25,0,0,0-13.186-2.895,2.776,2.776,0,0,0-2.558,2.791V31.17a2.791,2.791,0,0,0,2.741,2.8c3.844.044,10.823-.836,14.82-7.163a5.032,5.032,0,0,0,.773-2.683,4.931,4.931,0,0,0-2.591-4.37Z" transform="translate(11.005 3.145)" fill="#4a5877" stroke="#919599" stroke-width="2"></path><circle id="Ellipse_39" data-name="Ellipse 39" cx="3.22" cy="3.22" r="3.22" transform="translate(75.911 106.486)" fill="#fff" stroke="#919599" stroke-width="2"></circle><circle id="Ellipse_40" data-name="Ellipse 40" cx="3.22" cy="3.22" r="3.22" transform="translate(75.911 128.983)" fill="#fff" stroke="#919599" stroke-width="2"></circle><path id="Path_23575" data-name="Path 23575" d="M51.2,7.23a2.8,2.8,0,0,0-2.771-3.19H39.422a2.8,2.8,0,0,0-2.662,1.923L26.613,36.625a72.893,72.893,0,0,0-.054,45.647L50.25,154.418H64.974C51.254,102.48,45.548,49.368,51.2,7.23Zm70.43,29.4L111.488,5.963a2.8,2.8,0,0,0-2.668-1.923H99.814a2.8,2.8,0,0,0-2.772,3.19c5.653,42.141-.052,95.252-13.774,147.194H97.993l23.691-72.146a72.893,72.893,0,0,0-.054-45.652Z" transform="translate(5.01 0)" fill="#4a5877" stroke="#919599" stroke-width="2"></path><g id="Group_279" data-name="Group 279" transform="translate(69.743 23.761)"><path id="Path_23576" data-name="Path 23576" d="M73.365,24.924H68.356a1.869,1.869,0,1,1,0-3.738h5.009a1.869,1.869,0,1,1,0,3.738Zm-10.006,0H58.346a1.869,1.869,0,0,1,0-3.738h5.013a1.869,1.869,0,1,1,0,3.738Z" transform="translate(-56.477 -19.542)" fill="#3b4560" stroke="#919599" stroke-width="2"></path><rect id="Rectangle_163" data-name="Rectangle 163" width="7.494" height="7.494" rx="2.233" transform="translate(5.631)" fill="#3b4560" stroke="#919599" stroke-width="2"></rect></g></g></g></svg>